<mxfile host="app.diagrams.net" modified="2020-12-02T15:36:09.294Z" agent="5.0 (Macintosh; Intel Mac OS X 10_15_7) AppleWebKit/605.1.15 (KHTML, like Gecko) Version/14.0.1 Safari/605.1.15" etag="HyhN_rQLVO9jgEtXEfJn" version="13.10.5" type="github">
  <diagram id="IhLREWa9TWCA8kRGoyMS" name="第 1 页">
    <mxGraphModel dx="830" dy="565" grid="1" gridSize="10" guides="1" tooltips="1" connect="1" arrows="1" fold="1" page="1" pageScale="1" pageWidth="827" pageHeight="1169" math="0" shadow="0">
      <root>
        <mxCell id="0" />
        <mxCell id="1" parent="0" />
        <mxCell id="GGrhcaNc7Lvt5lfEOBhG-1" value="8" style="rounded=0;whiteSpace=wrap;html=1;fontSize=20;fillColor=#ffe6cc;strokeColor=none;" vertex="1" parent="1">
          <mxGeometry x="210" y="172" width="30" height="40" as="geometry" />
        </mxCell>
        <mxCell id="GGrhcaNc7Lvt5lfEOBhG-3" value="" style="endArrow=none;html=1;fontSize=16;fillColor=#ffe6cc;strokeColor=#d79b00;strokeWidth=2;" edge="1" parent="1">
          <mxGeometry width="50" height="50" relative="1" as="geometry">
            <mxPoint x="414" y="119" as="sourcePoint" />
            <mxPoint x="414" y="79" as="targetPoint" />
          </mxGeometry>
        </mxCell>
        <mxCell id="GGrhcaNc7Lvt5lfEOBhG-4" value="" style="endArrow=none;html=1;fontSize=16;fillColor=#ffe6cc;strokeColor=#d79b00;strokeWidth=2;" edge="1" parent="1">
          <mxGeometry width="50" height="50" relative="1" as="geometry">
            <mxPoint x="414" y="119" as="sourcePoint" />
            <mxPoint x="464" y="119" as="targetPoint" />
          </mxGeometry>
        </mxCell>
        <mxCell id="GGrhcaNc7Lvt5lfEOBhG-5" value="8" style="text;html=1;align=center;verticalAlign=middle;resizable=0;points=[];autosize=1;fontSize=16;" vertex="1" parent="1">
          <mxGeometry x="430" y="90" width="20" height="20" as="geometry" />
        </mxCell>
        <mxCell id="GGrhcaNc7Lvt5lfEOBhG-6" value="2" style="text;html=1;align=center;verticalAlign=middle;resizable=0;points=[];autosize=1;fontSize=16;" vertex="1" parent="1">
          <mxGeometry x="380" y="90" width="20" height="20" as="geometry" />
        </mxCell>
        <mxCell id="GGrhcaNc7Lvt5lfEOBhG-7" value="" style="endArrow=none;html=1;fontSize=16;fillColor=#ffe6cc;strokeColor=#d79b00;strokeWidth=2;" edge="1" parent="1">
          <mxGeometry width="50" height="50" relative="1" as="geometry">
            <mxPoint x="424" y="160" as="sourcePoint" />
            <mxPoint x="424" y="120" as="targetPoint" />
          </mxGeometry>
        </mxCell>
        <mxCell id="GGrhcaNc7Lvt5lfEOBhG-8" value="" style="endArrow=none;html=1;fontSize=16;fillColor=#ffe6cc;strokeColor=#d79b00;strokeWidth=2;" edge="1" parent="1">
          <mxGeometry width="50" height="50" relative="1" as="geometry">
            <mxPoint x="424" y="160" as="sourcePoint" />
            <mxPoint x="474" y="160" as="targetPoint" />
          </mxGeometry>
        </mxCell>
        <mxCell id="GGrhcaNc7Lvt5lfEOBhG-9" value="4" style="text;html=1;align=center;verticalAlign=middle;resizable=0;points=[];autosize=1;fontSize=16;" vertex="1" parent="1">
          <mxGeometry x="440" y="131" width="20" height="20" as="geometry" />
        </mxCell>
        <mxCell id="GGrhcaNc7Lvt5lfEOBhG-10" value="2" style="text;html=1;align=center;verticalAlign=middle;resizable=0;points=[];autosize=1;fontSize=16;" vertex="1" parent="1">
          <mxGeometry x="390" y="131" width="20" height="20" as="geometry" />
        </mxCell>
        <mxCell id="GGrhcaNc7Lvt5lfEOBhG-14" value="" style="endArrow=none;html=1;fontSize=16;fillColor=#ffe6cc;strokeColor=#d79b00;strokeWidth=2;" edge="1" parent="1">
          <mxGeometry width="50" height="50" relative="1" as="geometry">
            <mxPoint x="424" y="160" as="sourcePoint" />
            <mxPoint x="474" y="160" as="targetPoint" />
          </mxGeometry>
        </mxCell>
        <mxCell id="GGrhcaNc7Lvt5lfEOBhG-15" value="" style="endArrow=none;html=1;fontSize=16;fillColor=#ffe6cc;strokeColor=#d79b00;strokeWidth=2;" edge="1" parent="1">
          <mxGeometry width="50" height="50" relative="1" as="geometry">
            <mxPoint x="434" y="201" as="sourcePoint" />
            <mxPoint x="434" y="161" as="targetPoint" />
          </mxGeometry>
        </mxCell>
        <mxCell id="GGrhcaNc7Lvt5lfEOBhG-16" value="" style="endArrow=none;html=1;fontSize=16;fillColor=#ffe6cc;strokeColor=#d79b00;strokeWidth=2;" edge="1" parent="1">
          <mxGeometry width="50" height="50" relative="1" as="geometry">
            <mxPoint x="434" y="201" as="sourcePoint" />
            <mxPoint x="484" y="201" as="targetPoint" />
          </mxGeometry>
        </mxCell>
        <mxCell id="GGrhcaNc7Lvt5lfEOBhG-17" value="2" style="text;html=1;align=center;verticalAlign=middle;resizable=0;points=[];autosize=1;fontSize=16;" vertex="1" parent="1">
          <mxGeometry x="450" y="172" width="20" height="20" as="geometry" />
        </mxCell>
        <mxCell id="GGrhcaNc7Lvt5lfEOBhG-18" value="2" style="text;html=1;align=center;verticalAlign=middle;resizable=0;points=[];autosize=1;fontSize=16;" vertex="1" parent="1">
          <mxGeometry x="400" y="172" width="20" height="20" as="geometry" />
        </mxCell>
        <mxCell id="GGrhcaNc7Lvt5lfEOBhG-24" value="" style="endArrow=none;html=1;fontSize=16;fillColor=#ffe6cc;strokeColor=#d79b00;strokeWidth=2;" edge="1" parent="1">
          <mxGeometry width="50" height="50" relative="1" as="geometry">
            <mxPoint x="434" y="200" as="sourcePoint" />
            <mxPoint x="484" y="200" as="targetPoint" />
          </mxGeometry>
        </mxCell>
        <mxCell id="GGrhcaNc7Lvt5lfEOBhG-25" value="" style="endArrow=none;html=1;fontSize=16;fillColor=#ffe6cc;strokeColor=#d79b00;strokeWidth=2;" edge="1" parent="1">
          <mxGeometry width="50" height="50" relative="1" as="geometry">
            <mxPoint x="434" y="200" as="sourcePoint" />
            <mxPoint x="484" y="200" as="targetPoint" />
          </mxGeometry>
        </mxCell>
        <mxCell id="GGrhcaNc7Lvt5lfEOBhG-26" value="" style="endArrow=none;html=1;fontSize=16;fillColor=#ffe6cc;strokeColor=#d79b00;strokeWidth=2;" edge="1" parent="1">
          <mxGeometry width="50" height="50" relative="1" as="geometry">
            <mxPoint x="444" y="241" as="sourcePoint" />
            <mxPoint x="444" y="201" as="targetPoint" />
          </mxGeometry>
        </mxCell>
        <mxCell id="GGrhcaNc7Lvt5lfEOBhG-27" value="" style="endArrow=none;html=1;fontSize=16;fillColor=#ffe6cc;strokeColor=#d79b00;strokeWidth=2;" edge="1" parent="1">
          <mxGeometry width="50" height="50" relative="1" as="geometry">
            <mxPoint x="444" y="241" as="sourcePoint" />
            <mxPoint x="494" y="241" as="targetPoint" />
          </mxGeometry>
        </mxCell>
        <mxCell id="GGrhcaNc7Lvt5lfEOBhG-28" value="1" style="text;html=1;align=center;verticalAlign=middle;resizable=0;points=[];autosize=1;fontSize=16;" vertex="1" parent="1">
          <mxGeometry x="460" y="212" width="20" height="20" as="geometry" />
        </mxCell>
        <mxCell id="GGrhcaNc7Lvt5lfEOBhG-29" value="2" style="text;html=1;align=center;verticalAlign=middle;resizable=0;points=[];autosize=1;fontSize=16;" vertex="1" parent="1">
          <mxGeometry x="414" y="212" width="20" height="20" as="geometry" />
        </mxCell>
        <mxCell id="GGrhcaNc7Lvt5lfEOBhG-36" value="0" style="text;html=1;align=center;verticalAlign=middle;resizable=0;points=[];autosize=1;fontSize=16;fillColor=#dae8fc;strokeColor=#6c8ebf;" vertex="1" parent="1">
          <mxGeometry x="515" y="130" width="20" height="20" as="geometry" />
        </mxCell>
        <mxCell id="GGrhcaNc7Lvt5lfEOBhG-37" value="0" style="text;html=1;align=center;verticalAlign=middle;resizable=0;points=[];autosize=1;fontSize=16;fillColor=#dae8fc;strokeColor=#6c8ebf;" vertex="1" parent="1">
          <mxGeometry x="515" y="172" width="20" height="20" as="geometry" />
        </mxCell>
        <mxCell id="GGrhcaNc7Lvt5lfEOBhG-38" value="0" style="text;html=1;align=center;verticalAlign=middle;resizable=0;points=[];autosize=1;fontSize=16;fillColor=#dae8fc;strokeColor=#6c8ebf;" vertex="1" parent="1">
          <mxGeometry x="515" y="212" width="20" height="20" as="geometry" />
        </mxCell>
        <mxCell id="GGrhcaNc7Lvt5lfEOBhG-40" value="1" style="text;html=1;align=center;verticalAlign=middle;resizable=0;points=[];autosize=1;fontSize=16;fillColor=#dae8fc;strokeColor=#6c8ebf;" vertex="1" parent="1">
          <mxGeometry x="515" y="250" width="20" height="20" as="geometry" />
        </mxCell>
        <mxCell id="GGrhcaNc7Lvt5lfEOBhG-41" value="1" style="text;html=1;align=center;verticalAlign=middle;resizable=0;points=[];autosize=1;fontSize=16;" vertex="1" parent="1">
          <mxGeometry x="460" y="250" width="20" height="20" as="geometry" />
        </mxCell>
        <mxCell id="GGrhcaNc7Lvt5lfEOBhG-42" value="余数" style="text;html=1;align=center;verticalAlign=middle;resizable=0;points=[];autosize=1;fontSize=16;" vertex="1" parent="1">
          <mxGeometry x="500" y="100" width="50" height="20" as="geometry" />
        </mxCell>
        <mxCell id="GGrhcaNc7Lvt5lfEOBhG-44" value="------" style="text;html=1;align=center;verticalAlign=middle;resizable=0;points=[];autosize=1;fontSize=16;" vertex="1" parent="1">
          <mxGeometry x="460" y="131" width="50" height="20" as="geometry" />
        </mxCell>
        <mxCell id="GGrhcaNc7Lvt5lfEOBhG-45" value="----" style="text;html=1;align=center;verticalAlign=middle;resizable=0;points=[];autosize=1;fontSize=16;" vertex="1" parent="1">
          <mxGeometry x="475" y="172" width="40" height="20" as="geometry" />
        </mxCell>
        <mxCell id="GGrhcaNc7Lvt5lfEOBhG-46" value="----" style="text;html=1;align=center;verticalAlign=middle;resizable=0;points=[];autosize=1;fontSize=16;" vertex="1" parent="1">
          <mxGeometry x="475" y="212" width="40" height="20" as="geometry" />
        </mxCell>
        <mxCell id="GGrhcaNc7Lvt5lfEOBhG-47" value="----" style="text;html=1;align=center;verticalAlign=middle;resizable=0;points=[];autosize=1;fontSize=16;" vertex="1" parent="1">
          <mxGeometry x="475" y="250" width="40" height="20" as="geometry" />
        </mxCell>
        <mxCell id="GGrhcaNc7Lvt5lfEOBhG-49" value="" style="endArrow=none;html=1;strokeWidth=2;fontSize=16;" edge="1" parent="1">
          <mxGeometry width="50" height="50" relative="1" as="geometry">
            <mxPoint x="375" y="280" as="sourcePoint" />
            <mxPoint x="595" y="280" as="targetPoint" />
          </mxGeometry>
        </mxCell>
        <mxCell id="GGrhcaNc7Lvt5lfEOBhG-51" value="二进制结果&lt;br&gt;&lt;font color=&quot;#ff0000&quot;&gt;&lt;b&gt;10000&lt;/b&gt;&lt;/font&gt;" style="text;html=1;align=center;verticalAlign=middle;resizable=0;points=[];autosize=1;fontSize=16;" vertex="1" parent="1">
          <mxGeometry x="435" y="290" width="100" height="40" as="geometry" />
        </mxCell>
        <mxCell id="GGrhcaNc7Lvt5lfEOBhG-52" value="" style="shape=flexArrow;endArrow=classic;html=1;strokeWidth=1;fontSize=16;fillColor=#fff2cc;strokeColor=none;" edge="1" parent="1">
          <mxGeometry width="50" height="50" relative="1" as="geometry">
            <mxPoint x="250" y="192" as="sourcePoint" />
            <mxPoint x="370" y="192" as="targetPoint" />
          </mxGeometry>
        </mxCell>
        <mxCell id="GGrhcaNc7Lvt5lfEOBhG-53" value="十进制转二进制" style="text;html=1;align=center;verticalAlign=middle;resizable=0;points=[];autosize=1;fontSize=16;" vertex="1" parent="1">
          <mxGeometry x="240" y="152" width="130" height="20" as="geometry" />
        </mxCell>
      </root>
    </mxGraphModel>
  </diagram>
</mxfile>
